<?xml version="1.0" encoding="UTF-8"?>
<svg id="Calque_2" data-name="Calque 2" xmlns="http://www.w3.org/2000/svg" viewBox="0 0 134.09 118.26">
  <defs>
    <style>
      .cls-1 {
        fill: #b7b7b7;
      }

      .cls-1, .cls-2 {
        stroke-width: 0px;
      }

      .cls-2 {
        fill: #fff;
      }
    </style>
  </defs>
  <path class="cls-2" d="M14.76,116.54c-1.14,0-2.17-.63-2.69-1.63-.53-1.02-.44-2.24.22-3.18,1.77-2.51,1.62-3.55.12-6.07C-1.94,81.6-2.73,55.08,9.93,22.2c1.55-4.02,3.32-8.01,5.04-11.87.49-1.1.98-2.21,1.47-3.31,1.74-3.95,4.62-5.97,8.57-6.02h.14c3.92,0,7.04,2,8.76,5.62,8.39,17.68,13.22,32.97,15.18,48.14,2.18,16.84-1.28,33.35-10.57,50.46-.55,1.02-1.56,2.88-1.57,3.44.48.25,2.46.26,3.67.26h6.8s22.88,0,22.88,0c9.6,0,16.92.02,23.74.07h.17c2.38,0,2.73-.4,2.78-.48.05-.08.22-.61-1.04-2.75-7.28-12.29-11.17-25.52-11.56-39.32-.22-7.64.78-15.72,3.13-25.43,2.47-10.2,6.41-20.97,12.39-33.88,1.76-3.8,4.72-5.91,8.55-6.11.2-.01.4-.02.59-.02,3.64,0,6.51,1.8,8.07,5.08,7.06,14.83,15.25,34.67,15.94,56.63.45,14.24-3.03,27.83-10.64,41.56-1.5,2.7-2.56,4.62-.43,7.61.65.91.73,2.1.22,3.1-.53,1.03-1.57,1.66-2.72,1.66,0,0-104.72-.1-104.72-.1Z"/>
  <path class="cls-1" d="M109.04,2c3.23,0,5.74,1.52,7.16,4.51,8.49,17.83,15.21,36.14,15.85,56.23.46,14.76-3.45,28.29-10.52,41.04-1.49,2.69-2.88,5.16-.37,8.68.95,1.33-.05,3.18-1.69,3.18h0l-104.71-.1c-1.66,0-2.61-1.88-1.65-3.23,1.98-2.81,1.86-4.3.16-7.16C-2.86,78.1.14,50.41,10.87,22.56c1.97-5.12,4.28-10.11,6.49-15.13,1.46-3.31,3.9-5.38,7.66-5.43.04,0,.09,0,.13,0,3.66,0,6.35,1.89,7.86,5.06,7.24,15.24,12.91,30.95,15.1,47.84,2.32,17.92-1.99,34.27-10.46,49.86-2.68,4.94-2.49,5.17,2.98,5.18,2.25,0,4.51,0,6.76,0,7.65,0,15.29-.01,22.94-.01s15.8.01,23.7.07c.06,0,.12,0,.17,0,4.07,0,4.79-1.04,2.6-4.74-7.08-11.96-11.03-24.99-11.42-38.84-.24-8.46,1.1-16.9,3.1-25.17,2.83-11.69,7.28-22.81,12.33-33.69,1.49-3.22,3.99-5.34,7.7-5.53.18,0,.37-.01.54-.01M109.04,0c-.21,0-.43,0-.65.02-4.23.22-7.48,2.53-9.41,6.69-6.01,12.97-9.97,23.8-12.46,34.06-2.38,9.8-3.38,17.97-3.16,25.7.4,13.97,4.34,27.37,11.7,39.81.47.79.7,1.3.82,1.62-.32.05-.85.11-1.69.11h-.16c-6.81-.05-14.13-.07-23.72-.07-3.82,0-7.65,0-11.47,0-3.82,0-7.65,0-11.47,0-2.25,0-4.51,0-6.76,0-.59,0-1.59,0-2.35-.05.34-.73.85-1.67,1.12-2.18,9.4-17.31,12.9-34.01,10.69-51.07-1.98-15.27-6.83-30.66-15.27-48.44C32.91,2.2,29.48,0,25.15,0h-.15c-4.31.05-7.59,2.34-9.47,6.62-.48,1.1-.97,2.2-1.46,3.3-1.72,3.87-3.5,7.88-5.06,11.92C-3.78,55.03-2.97,81.82,11.56,106.18c1.38,2.32,1.37,2.92-.08,4.98-.88,1.25-.99,2.86-.29,4.21.69,1.34,2.06,2.17,3.57,2.17l104.71.1c1.53,0,2.91-.84,3.61-2.2.69-1.34.58-2.92-.29-4.14-1.7-2.38-1.08-3.71.47-6.51,7.72-13.92,11.24-27.69,10.79-42.11-.7-22.15-8.94-42.11-16.04-57.03-1.73-3.64-4.92-5.65-8.97-5.65h0Z"/>
</svg>